<?xml version="1.0" encoding="UTF-8"?>
<svg id="Layer_1" xmlns="http://www.w3.org/2000/svg" xmlns:xlink="http://www.w3.org/1999/xlink" version="1.1" viewBox="0 0 56.7 56.7">
  <!-- Generator: Adobe Illustrator 29.2.1, SVG Export Plug-In . SVG Version: 2.1.0 Build 116)  -->
  <defs>
    <style>
      .st0 {
        fill: #d6e5d6;
      }

      .st1 {
        fill: #88a189;
      }

      .st2 {
        fill: none;
        stroke: #88a189;
        stroke-miterlimit: 10;
        stroke-width: 2.5px;
      }
    </style>
  </defs>
  <g id="Layer_2">
    <g>
      <g>
        <path class="st1" d="M46.7,30.6c.5,1.4.3,2.5,0,4.2-.5,3.6-2.5,6.8-5.5,8.8l-2,1.2c-1.9,1.2-2.5,1.5-2.8,2.3-.3.9-.1,1.9.5,2.7l-.7.8c-.4-.1-.8-.4-1.1-.7-.4-.5-.5-1.1-.4-1.8-1.1,0-2.1,0-3.2.1-3.2.3-3.9,1-6.3,1.2-1.9.1-3.8-.2-5.5-.9-1.5-.5-2.8-1.4-3.8-2.6-.6-.8-2.1-2.7-1.6-4.9.2-1,.8-1.8,1.5-2.4.1.1.3.3.4.4,1.2,1,2.6,1.7,4.1,1.9,5.8,1.2,16.4-1.4,20.2-9.4.5-1,.9-2.2,1.1-3.3,0,0,0,0,0,0,0,0,0-.1.1-.2.6-.2,1.2-.3,1.8-.2,2.1.3,3,2.7,3.1,3Z"/>
        <path class="st0" d="M41.6,28s0,0,0,0c-.2,1.1-.6,2.3-1.1,3.3-3.8,8-14.4,10.6-20.2,9.4-1.5-.2-3-.9-4.1-1.9-.1-.1-.3-.3-.4-.4-.9-.9-1.3-2.1-2-3.8-2-5.4-3.1-8.4-2.9-12.5,0-1.4.2-2.8.7-4.1.6-1.6,1.5-3.1,2.6-4.4.8-.9,1.6-1.9,2.3-2.9.5-.8.9-1.7,1.2-2.6.9.5,1.8.9,2.8,1,1.7.3,2.7-.1,4.2-.1,1.6,0,3.2.6,4.6,1.4,6.1,3,9.3,9.7,10.3,11.6.9,1.9,1.6,3.8,2.1,5.8Z"/>
      </g>
      <g>
        <path class="st2" d="M15.8,38.5c-.9-.9-1.3-2.1-2-3.8-2-5.4-3.1-8.4-2.9-12.5,0-1.4.2-2.8.7-4.1.6-1.6,1.5-3.1,2.6-4.4.8-.9,1.6-1.9,2.3-2.9.5-.8.9-1.7,1.2-2.6.9.5,1.8.9,2.8,1,1.7.3,2.7-.1,4.2-.1,1.6,0,3.2.6,4.6,1.4,6.1,3,9.3,9.7,10.3,11.6.9,1.9,1.6,3.8,2.1,5.8"/>
        <path class="st2" d="M41.6,28c0,0,0-.1.1-.2.6-.2,1.2-.3,1.8-.2,2.1.3,3,2.7,3.1,3,.5,1.4.3,2.5,0,4.2-.5,3.6-2.5,6.8-5.5,8.8l-2,1.2c-1.9,1.2-2.5,1.5-2.8,2.3-.3.9-.1,1.9.5,2.7l-.7.8c-.4-.1-.8-.4-1.1-.7-.4-.5-.5-1.1-.4-1.8-1.1,0-2.1,0-3.2.1-3.2.3-3.9,1-6.3,1.2-1.9.1-3.8-.2-5.5-.9-1.5-.5-2.8-1.4-3.8-2.6-.6-.8-2.1-2.7-1.6-4.9.2-1,.8-1.8,1.5-2.4.1.1.3.3.4.4,1.2,1,2.6,1.7,4.1,1.9,5.8,1.2,16.4-1.4,20.2-9.4.5-1,.9-2.2,1.1-3.3,0,0,0,0,0,0Z"/>
      </g>
    </g>
  </g>
</svg>